<?xml version="1.0" encoding="utf-8"?>
<!-- Generator: Adobe Illustrator 26.2.1, SVG Export Plug-In . SVG Version: 6.00 Build 0)  -->
<svg version="1.1" id="Layer_1" xmlns="http://www.w3.org/2000/svg" xmlns:xlink="http://www.w3.org/1999/xlink" x="0px" y="0px"
	 viewBox="0 0 240 270" style="enable-background:new 0 0 240 270;" xml:space="preserve">
<style type="text/css">
	.st0{fill:#25283D;}
	.st1{fill:#4E52A3;}
</style>
<g>
	<polygon class="st0" points="232.51,70.05 195.02,91.7 195,91.7 157.5,113.34 157.5,113.35 120,135 82.5,113.35 82.5,113.34 
		45,91.7 7.49,70.05 45,48.39 82.5,70.04 120,91.7 157.5,70.04 195,48.39 	"/>
	<polygon class="st1" points="157.5,26.73 157.5,26.74 120,48.39 82.51,26.74 120,5.09 	"/>
	<polygon class="st1" points="45,91.7 45,178.3 7.49,199.95 7.49,70.05 	"/>
	<polygon class="st1" points="232.51,70.05 232.51,199.95 195,178.3 195,91.7 195.02,91.7 	"/>
	<polygon class="st0" points="232.51,199.95 195.02,221.6 195,221.6 195,221.61 157.5,243.26 120,264.91 82.5,243.26 45,221.61 
		45,221.6 7.49,199.96 7.49,199.95 45,178.3 45.01,178.3 82.5,199.95 120,221.6 157.5,199.95 195,178.3 	"/>
</g>
</svg>
